<svg width="20" height="20" viewBox="0 0 20 20" fill="none" xmlns="http://www.w3.org/2000/svg">
<g clip-path="url(#clip0_2042_29)">
<path d="M14.5833 5.4165H14.5917M5.83332 1.6665H14.1667C16.4678 1.6665 18.3333 3.53198 18.3333 5.83317V14.1665C18.3333 16.4677 16.4678 18.3332 14.1667 18.3332H5.83332C3.53214 18.3332 1.66666 16.4677 1.66666 14.1665V5.83317C1.66666 3.53198 3.53214 1.6665 5.83332 1.6665ZM13.3333 9.47484C13.4362 10.1684 13.3177 10.8767 12.9948 11.499C12.6719 12.1213 12.1609 12.626 11.5347 12.9412C10.9084 13.2564 10.1987 13.3662 9.50648 13.2548C8.81426 13.1434 8.17479 12.8166 7.67902 12.3208C7.18325 11.825 6.85643 11.1856 6.74505 10.4933C6.63366 9.80113 6.74338 9.09142 7.0586 8.46515C7.37381 7.83888 7.87848 7.32795 8.50081 7.00504C9.12314 6.68212 9.83145 6.56366 10.525 6.6665C11.2324 6.77141 11.8874 7.10106 12.3931 7.60676C12.8988 8.11246 13.2284 8.7674 13.3333 9.47484Z" stroke="white" stroke-width="2" stroke-linecap="round" stroke-linejoin="round"/>
</g>
<defs>
<clipPath id="clip0_2042_29">
<rect width="20" height="20" fill="white"/>
</clipPath>
</defs>
</svg>
