<svg width="20" height="20" viewBox="0 0 20 20" fill="none" xmlns="http://www.w3.org/2000/svg">
<g clip-path="url(#clip0_2042_209)">
<path d="M18.7833 5.35016C18.6843 4.95467 18.4827 4.59231 18.1989 4.29967C17.915 4.00703 17.559 3.79448 17.1667 3.6835C15.7333 3.3335 10 3.3335 10 3.3335C10 3.3335 4.26667 3.3335 2.83333 3.71683C2.44104 3.82782 2.08498 4.04036 1.80112 4.333C1.51726 4.62564 1.31566 4.988 1.21666 5.3835C0.954344 6.83813 0.826028 8.31375 0.833332 9.79183C0.823981 11.281 0.952305 12.7679 1.21666 14.2335C1.3258 14.6167 1.53192 14.9653 1.81512 15.2456C2.09832 15.5258 2.44902 15.7283 2.83333 15.8335C4.26667 16.2168 10 16.2168 10 16.2168C10 16.2168 15.7333 16.2168 17.1667 15.8335C17.559 15.7225 17.915 15.51 18.1989 15.2173C18.4827 14.9247 18.6843 14.5623 18.7833 14.1668C19.0436 12.7232 19.1719 11.2588 19.1667 9.79183C19.176 8.30263 19.0477 6.81574 18.7833 5.35016Z" stroke="white" stroke-width="2" stroke-linecap="round" stroke-linejoin="round"/>
<path d="M8.125 12.5168L12.9167 9.79183L8.125 7.06683V12.5168Z" stroke="white" stroke-width="2" stroke-linecap="round" stroke-linejoin="round"/>
</g>
<defs>
<clipPath id="clip0_2042_209">
<rect width="20" height="20" fill="white"/>
</clipPath>
</defs>
</svg>
