<svg width="146" height="803" viewBox="0 0 146 803" fill="none" xmlns="http://www.w3.org/2000/svg">
<path d="M147.19 414.581C134.917 409.7 128.02 407.484 115.522 409.745C102.285 426.755 99.2708 438.948 96.1684 462.065C78.0778 471.264 66.5135 471.811 57.9019 487.566C49.0071 503.839 57.9019 516.506 57.9019 535.05C45.6292 548.34 41.5323 555.216 33.7104 567.585C9.83956 671.359 6.60568 729.489 6.00012 833.145C105 848.835 160.761 849.11 260.671 833.145C260.671 833.145 282.764 686.827 234.72 616.388C230.501 610.203 228.218 606.632 223.284 601C217.52 594.421 215.698 584.59 207.009 585.612C204.473 585.91 200.852 587.81 200.852 587.81V540.326C194.553 532.364 191.643 527.475 187.656 517.903C188.064 502.28 188.427 493.521 185.457 477.893C185.457 477.893 174.43 464.36 168.303 455.03C158.521 440.136 147.19 414.581 147.19 414.581Z" fill="url(#paint0_linear_2302_274)" stroke="#AEC752"/>
<path d="M138.712 200.339C152.28 190.465 159.873 186.697 173.38 184C221.361 429.519 204.893 463.072 206.562 597.427C155.433 608.292 126.61 612.493 73.3388 597.427C46.2773 546.15 26.4834 517.224 45.6046 467.705C45.6046 467.705 70.8625 458.793 87.2059 434.532C103.549 410.271 96.1378 363.988 107.511 320.654C107.511 320.654 127.817 318.673 130.293 305.8C132.769 292.927 138.712 200.339 138.712 200.339Z" fill="url(#paint1_linear_2302_274)" stroke="#AEC752"/>
<path d="M146.651 247.088C158.653 238.35 165.37 235.017 177.319 232.63C219.764 449.878 205.196 479.568 206.672 598.452C161.442 608.065 135.945 611.783 88.8207 598.452C64.8816 553.079 47.3715 527.484 64.2865 483.667C64.2865 483.667 86.6301 475.781 101.088 454.314C115.545 432.846 108.989 391.892 119.05 353.549C119.05 353.549 137.013 351.796 139.203 340.405C141.394 329.014 146.651 247.088 146.651 247.088Z" fill="url(#paint2_linear_2302_274)" stroke="#AEC752"/>
<path d="M148.982 461.802C170.892 453.159 175.276 477.537 194.287 493.836C213.297 510.135 197.193 815.674 190.935 813.218H18.2451C18.2028 813.237 18.1557 813.237 18.1034 813.218H18.2451C20.7032 812.13 6.54994 748.298 16.7306 713.493C26.0098 681.769 61.3355 681.285 51.9672 657.206C46.7803 643.874 51.3356 590.708 61.1196 587.648C73.0888 568.335 96.6381 547.801 106.881 536.852C133.927 507.943 127.073 470.446 148.982 461.802Z" fill="url(#paint3_linear_2302_274)" stroke="#AEC752"/>
<path d="M142.575 533.333C161.636 525.832 172.714 541.153 189.253 555.298C205.791 569.443 187.376 844.815 181.931 842.683H36.2792C36.1753 842.724 36.0658 842.724 35.9503 842.683H36.2792C40.7677 840.909 34.7972 763.323 45.5603 718.21C48.9056 704.189 70.7293 691.211 70.7293 691.211C81.1423 674.451 75.0888 609.647 84.0003 600.145C107.529 575.057 123.515 540.834 142.575 533.333Z" fill="url(#paint4_linear_2302_274)" stroke="#AEC752"/>
<path d="M151.27 551.953C170.331 544.453 181.409 559.774 197.947 573.919C214.486 588.064 196.07 863.435 190.625 861.304H44.9739C44.87 861.345 44.7605 861.345 44.645 861.304H44.9739C49.4624 859.529 43.4919 781.943 54.255 736.831C57.6003 722.81 79.424 709.832 79.424 709.832C89.837 693.072 83.7835 628.268 92.695 618.766C116.224 593.678 132.21 559.454 151.27 551.953Z" fill="url(#paint5_linear_2302_274)" stroke="#AEC752"/>
<path d="M26.0783 497.316C20.589 482.817 66.2064 467 66.2064 467C66.2064 467 45.8823 469.199 34.2175 474.532C19.5106 481.256 5.82487 491.291 2.03923 500.517C-1.74641 509.744 5.44633 520.477 13.3962 524.432C21.3461 528.386 39.3301 525.936 49.5494 516.335C52.9565 513.134 52.3887 509.556 59.5815 509.744C66.7743 509.932 72.4334 523.823 83.4312 527.821C88.1304 529.529 91.294 528.759 95.9239 530.646C102.915 533.493 111.445 542.132 111.445 542.132C119 552.984 124.506 557.384 132.645 558.702C140.784 560.02 157.63 555.501 166.716 556.254C175.802 557.008 177.78 562.588 185.644 563.598C198.179 565.207 216.876 555.125 216.876 555.125L247.351 534.6L243.944 493.739L210.441 469.071C183.656 485.8 167.817 496.624 148.545 500.141C129.273 503.658 123.519 513.021 106.524 511.815C97.2242 511.156 91.4185 510.574 83.4312 505.79C79.3364 503.337 78.2671 500.145 73.967 498.07C68.0033 495.19 61.285 495.245 57.1208 495.998C52.9565 496.751 31.5675 511.815 26.0783 497.316Z" fill="#F8F2DF" stroke="#AEC752"/>
<path d="M178.256 213.11C192.207 214.827 205.071 237.224 205.071 237.224C205.071 237.224 214.128 219.847 224.224 219.78C234.395 219.712 243.633 237.224 243.633 237.224C243.633 237.224 254.163 223.085 263.553 223.628C277.911 224.457 282.361 246.335 275.045 258.773C270.425 266.628 258.19 270.83 258.19 270.83C258.19 270.83 278.876 292.636 270.959 303.667C259.124 320.158 236.738 303.667 236.738 303.667C236.738 303.667 225.001 318.033 217.329 318.033C205.326 318.033 198.176 299.049 198.176 299.049C198.176 299.049 186.862 304.18 180.554 304.18C170.85 304.18 160.379 293.149 160.379 293.149C160.379 293.149 149.111 304.038 139.183 303.667C130.293 303.335 113.389 299.049 113.389 299.049C113.389 299.049 104.962 310.85 84.2758 315.211C66.0674 319.05 41.1164 303.667 41.1164 303.667C41.1164 303.667 0.099884 309.479 0.000183105 293.149C-0.0890503 278.543 25.0275 282.375 25.0275 282.375C25.0275 282.375 27.3259 268.778 38.3073 264.16C47.7076 260.208 66.9099 266.982 66.9099 266.982C66.9099 266.982 69.6638 257.73 74.5713 256.464C80.1212 255.033 87.0849 264.16 87.0849 264.16C87.0849 264.16 95.0865 235.752 110.069 230.554C122.752 226.154 143.779 237.224 143.779 237.224C143.779 237.224 161.971 211.105 178.256 213.11Z" fill="#FBFDFE" fill-opacity="0.8"/>
<defs>
<linearGradient id="paint0_linear_2302_274" x1="135.871" y1="408.857" x2="135.871" y2="845.016" gradientUnits="userSpaceOnUse">
<stop offset="0.355769" stop-color="#34634D"/>
<stop offset="1" stop-color="#AFCDBD"/>
</linearGradient>
<linearGradient id="paint1_linear_2302_274" x1="122.993" y1="184" x2="122.993" y2="607.214" gradientUnits="userSpaceOnUse">
<stop stop-color="#65967D"/>
<stop offset="1" stop-color="#AFCDBD"/>
</linearGradient>
<linearGradient id="paint2_linear_2302_274" x1="132.746" y1="232.63" x2="132.746" y2="607.112" gradientUnits="userSpaceOnUse">
<stop stop-color="#274A3A"/>
<stop offset="1" stop-color="#65967D"/>
</linearGradient>
<linearGradient id="paint3_linear_2302_274" x1="108.135" y1="460" x2="108.135" y2="813.233" gradientUnits="userSpaceOnUse">
<stop offset="0.0673077" stop-color="#6A9780"/>
<stop offset="1" stop-color="#AEBA96"/>
</linearGradient>
<linearGradient id="paint4_linear_2302_274" x1="115.972" y1="531.36" x2="115.972" y2="842.714" gradientUnits="userSpaceOnUse">
<stop stop-color="#61AA8C"/>
<stop offset="1" stop-color="#C1D7BE"/>
</linearGradient>
<linearGradient id="paint5_linear_2302_274" x1="124.667" y1="549.981" x2="124.667" y2="861.335" gradientUnits="userSpaceOnUse">
<stop offset="0.365385" stop-color="#31735B"/>
<stop offset="1" stop-color="#549D7F"/>
</linearGradient>
</defs>
</svg>
