<svg width="160" height="803" viewBox="0 0 160 803" fill="none" xmlns="http://www.w3.org/2000/svg">
<path d="M-45.6361 267.288C-47.3099 259.838 -20.51 233.334 -5.57018 234.013C9.36965 234.692 12.7651 247.594 12.7651 247.594L24.9886 299.884L68.4499 327.726C68.4799 351.633 68.4756 363.655 68.4499 384.09C68.3033 383.738 94.1051 419.016 94.9341 421.44C95.7632 423.863 91.5387 431.626 91.5387 431.626L118.702 843.15L-102 848.583L-96.5673 412.612L-51.7478 377.299C-48.6422 377.278 -43.9623 274.737 -45.6361 267.288Z" fill="url(#paint0_linear_2302_275)" stroke="#AEC752"/>
<path d="M-42.1472 333.246C-42.1472 333.246 -18.1986 288.155 -13.6257 297.254C-9.05281 306.353 -10.9094 366.521 -2.76036 368.558C5.3887 370.595 31.1938 378.744 34.5892 391.647C37.9846 404.549 34.5891 450.048 40.701 458.876C46.8128 467.704 67.1852 482.644 67.1852 482.644C84.4495 651.884 82.3432 740.146 88.2368 902.996C37.3185 912.729 8.77077 908.394 -42.1472 902.996C-44.4554 680.495 -50.0939 555.747 -42.1472 333.246Z" fill="url(#paint1_linear_2302_275)" stroke="#AEC752"/>
<path d="M5.78828 366.679C-25.7689 340.732 -43.2741 332.207 -74.004 332.848C-128.173 486.927 -134.576 615.949 -132.731 838.411C-30.7897 863.862 46.5093 836.478 137.079 815.366C128.567 738.355 112.257 734.943 88.8243 657.882C88.8243 657.882 28.7684 625.206 24.3001 607.333C19.8317 589.459 5.78828 366.679 5.78828 366.679Z" fill="url(#paint2_linear_2302_275)" stroke="#AEC752"/>
<path d="M0.472176 474.857C-26.6347 452.569 -41.6713 445.246 -68.0676 445.796C-114.598 578.147 -120.097 688.974 -118.513 880.064C-30.9475 901.926 15.5151 875.397 93.3129 857.262C86.0011 791.111 88.0045 768.216 67.8761 702.023C67.8761 702.023 20.2116 696.926 16.3734 681.573C12.5352 666.22 0.472176 474.857 0.472176 474.857Z" fill="url(#paint3_linear_2302_275)" stroke="#AEC752"/>
<path d="M123.057 511.036C121.433 501.598 99.3376 485 99.3376 485C99.3376 485 114.609 504.527 111.36 512.012C108.111 519.497 91.8643 514.615 76.5927 519.823C61.3212 525.03 52.2232 541.627 60.0215 557.9C67.8197 574.172 79.1921 592.722 80.4919 596.627C85.5139 611.718 69.3194 622.53 57.637 630.33L57.422 630.474C45.7247 638.284 -6.26363 642.841 -6.26363 642.841C-6.26363 642.841 -60.715 649.216 -95.2936 645.444C-134.094 641.211 -185.082 624.833 -191.797 619.409C-198.512 613.984 -211.942 603.267 -211.942 603.787C-211.942 604.308 -219.741 625.917 -223.64 636.657C-227.539 647.397 -248.957 689.79 -230.788 714.113C-221.448 726.617 -212.912 735.918 -197.321 735.918C-183.674 735.918 -113.805 736.824 -61.1763 728.758C-18.6432 722.239 27.8537 711.184 46.0496 703.373C64.2455 695.563 95.5785 686.059 108.76 659.113C119.824 636.496 117.866 619.002 111.36 594.675C105.936 574.392 83.7411 561.154 85.0408 547.811C86.3405 534.468 99.3834 532.782 111.36 528.284C113.959 527.308 124.682 520.473 123.057 511.036Z" fill="#F8F2DF" stroke="#AEC752"/>
<path d="M-184.655 208.038C-184.655 208.038 -197.336 229.495 -203.578 233.099C-216.431 240.519 -223.516 218.682 -238.356 218.472C-257.705 218.197 -271.394 253.044 -282.134 239.85C-286.054 235.034 -275.486 211.721 -275.486 211.721C-275.486 211.721 -290.726 203.333 -290.726 193.616C-290.726 186.896 -271.394 177.762 -271.394 177.762C-271.394 177.762 -295.811 172.136 -297.784 158.02C-299.544 145.432 -290.331 122.803 -277.94 119.97C-266.445 117.341 -253.757 121.609 -240.708 132.449C-230.569 140.871 -230.807 162.997 -223.524 161.498C-209.92 158.699 -216.441 138.882 -203.578 132.449C-193.825 127.571 -197.811 96.8529 -186.905 96.8529C-175.756 96.8529 -157.958 124.061 -157.958 124.061C-157.958 124.061 -159.432 117.77 -156.833 115.06C-154.123 112.235 -146.093 113.832 -146.093 113.832C-146.093 113.832 -146.226 102.835 -142.206 96.8529C-137.547 89.9195 -134.091 86.8344 -125.738 86.7265C-115.689 86.5966 -102.621 91.3294 -102.621 91.3294C-102.621 91.3294 -94.8008 61.9843 -80.9365 59.2114C-62.0135 55.4268 -37.7715 103.706 -37.7715 103.706C-37.7715 103.706 -10.6828 82.1689 3.65454 86.7265C19.0998 91.6363 27.4873 128.05 27.4873 128.05C27.4873 128.05 39.073 125.8 46.7172 129.687C52.7521 132.755 58.5825 143.802 58.5825 143.802C58.5825 143.802 62.8785 133.983 70.2431 133.983C84.1259 133.983 75.8274 141.678 83.6427 150.553C91.9622 160.002 94.6896 165.896 94.6896 165.896C94.6896 165.896 100.204 159.248 108.396 159.248C120.261 159.248 119.136 170.908 119.136 170.908C119.136 170.908 158.867 163.278 159.539 174.386C159.915 180.602 141.782 180.872 136.729 184.512C130.373 189.092 135.952 192.371 128.751 195.457C119.519 199.414 115.105 192.585 108.396 200.06C96.5175 213.294 63.083 204.561 63.083 204.561C63.083 204.561 65.0282 218.697 59.0938 223.177C55.2482 226.079 47.024 225.734 47.024 225.734C47.024 225.734 37.5541 239.281 29.2261 241.486C16.0579 244.972 3.65454 220.108 3.65454 220.108C3.65454 220.108 -9.92807 236.929 -21.0989 234.428C-24.7599 233.609 -34.6007 217.96 -34.6007 217.96C-34.6007 217.96 -46.2765 221.125 -52.5009 220.108C-61.1034 218.702 -68.0484 206.606 -68.0484 206.606C-68.0484 206.606 -73.0552 239.148 -88.7103 240.77C-93.3988 241.256 -104.864 239.543 -111.111 233.712C-117.358 227.882 -117.248 215.198 -117.248 215.198C-117.248 215.198 -121.749 220.108 -128.704 220.108C-141.415 220.108 -144.354 196.48 -144.354 196.48C-144.354 196.48 -156.179 219.188 -169.21 215.198C-174.189 213.674 -184.655 208.038 -184.655 208.038Z" fill="#FBFDFE" fill-opacity="0.7"/>
<defs>
<linearGradient id="paint0_linear_2302_275" x1="8.35102" y1="234" x2="8.35102" y2="848.583" gradientUnits="userSpaceOnUse">
<stop offset="0.423077" stop-color="#5CA88A"/>
<stop offset="1" stop-color="#448A6E"/>
</linearGradient>
<linearGradient id="paint1_linear_2302_275" x1="20.9934" y1="296.042" x2="20.9934" y2="908.782" gradientUnits="userSpaceOnUse">
<stop offset="0.466346" stop-color="#34634D"/>
<stop offset="1" stop-color="#F2EFE1"/>
</linearGradient>
<linearGradient id="paint2_linear_2302_275" x1="-10.3046" y1="332.814" x2="-10.3046" y2="855.91" gradientUnits="userSpaceOnUse">
<stop stop-color="#65967D"/>
<stop offset="1" stop-color="#D6E8DE"/>
</linearGradient>
<linearGradient id="paint3_linear_2302_275" x1="-13.3513" y1="445.768" x2="-13.3513" y2="895.095" gradientUnits="userSpaceOnUse">
<stop stop-color="#34634D"/>
<stop offset="1" stop-color="#65967D"/>
</linearGradient>
</defs>
</svg>
